# xmcd
#
# Track frame offsets:
#	150
#	20696
#	45217
#	67881
#	88532
#	115824
#	136607
#	159758
#	176465
#	194250
#	211693
#	238354
#	254463
#	276166
#	294200
#
# Disc length: 4190 seconds
#
# Revision: 1
# Processed by: cddbd v1.5.2PL0 Copyright (c) Steve Scherf et al.
# Submitted via: EasyCDDAExtractor 15.3.0.1
#
DISCID=c1105c0f
DTITLE=Alejandro Sanz - Coleccion Definitiva - CD 2
DYEAR=2012
DGENRE=Latin
TTITLE0=Looking For Paradise (Featuring Alicia Keys)
TTITLE1=Quisiera Ser
TTITLE2=A La Primera Persona
TTITLE3=Te Lo Agradezco, Pero No (Featuring Shakira)
TTITLE4=No Es Lo Mismo
TTITLE5=Nuestro Amor Sera Leyenda
TTITLE6=Cuando Nadie Me Ve
TTITLE7=Try To Save Your S'ong
TTITLE8=Desde Cuando
TTITLE9=Enseñame Tus Manos
TTITLE10=El Alma Al Aire
TTITLE11=Lola Soledad
TTITLE12=Regalame La Silla Donde Te Espere
TTITLE13=Tu No Tienes Alma
TTITLE14=Sin Que Se Note
EXTD=
EXTT0=
EXTT1=
EXTT2=
EXTT3=
EXTT4=
EXTT5=
EXTT6=
EXTT7=
EXTT8=
EXTT9=
EXTT10=
EXTT11=
EXTT12=
EXTT13=
EXTT14=
PLAYORDER=
